<svg version="1.1" xmlns="http://www.w3.org/2000/svg" xmlns:xlink="http://www.w3.org/1999/xlink" width="624.46142578125" height="648"><defs/><g><text fill="#eeeeee" stroke="none" font-family="Arial" font-size="24px" font-style="normal" font-weight="normal" text-decoration="none" x="0" y="0">UNREGISTERED</text><text fill="#eeeeee" stroke="none" font-family="Arial" font-size="24px" font-style="normal" font-weight="normal" text-decoration="none" x="0" y="30">UNREGISTERED</text><text fill="#eeeeee" stroke="none" font-family="Arial" font-size="24px" font-style="normal" font-weight="normal" text-decoration="none" x="0" y="60">UNREGISTERED</text><text fill="#eeeeee" stroke="none" font-family="Arial" font-size="24px" font-style="normal" font-weight="normal" text-decoration="none" x="0" y="90">UNREGISTERED</text><text fill="#eeeeee" stroke="none" font-family="Arial" font-size="24px" font-style="normal" font-weight="normal" text-decoration="none" x="0" y="120">UNREGISTERED</text><text fill="#eeeeee" stroke="none" font-family="Arial" font-size="24px" font-style="normal" font-weight="normal" text-decoration="none" x="0" y="150">UNREGISTERED</text><text fill="#eeeeee" stroke="none" font-family="Arial" font-size="24px" font-style="normal" font-weight="normal" text-decoration="none" x="0" y="180">UNREGISTERED</text><text fill="#eeeeee" stroke="none" font-family="Arial" font-size="24px" font-style="normal" font-weight="normal" text-decoration="none" x="0" y="210">UNREGISTERED</text><text fill="#eeeeee" stroke="none" font-family="Arial" font-size="24px" font-style="normal" font-weight="normal" text-decoration="none" x="0" y="240">UNREGISTERED</text><text fill="#eeeeee" stroke="none" font-family="Arial" font-size="24px" font-style="normal" font-weight="normal" text-decoration="none" x="0" y="270">UNREGISTERED</text><text fill="#eeeeee" stroke="none" font-family="Arial" font-size="24px" font-style="normal" font-weight="normal" text-decoration="none" x="0" y="300">UNREGISTERED</text><text fill="#eeeeee" stroke="none" font-family="Arial" font-size="24px" font-style="normal" font-weight="normal" text-decoration="none" x="0" y="330">UNREGISTERED</text><text fill="#eeeeee" stroke="none" font-family="Arial" font-size="24px" font-style="normal" font-weight="normal" text-decoration="none" x="0" y="360">UNREGISTERED</text><text fill="#eeeeee" stroke="none" font-family="Arial" font-size="24px" font-style="normal" font-weight="normal" text-decoration="none" x="0" y="390">UNREGISTERED</text><text fill="#eeeeee" stroke="none" font-family="Arial" font-size="24px" font-style="normal" font-weight="normal" text-decoration="none" x="0" y="420">UNREGISTERED</text><text fill="#eeeeee" stroke="none" font-family="Arial" font-size="24px" font-style="normal" font-weight="normal" text-decoration="none" x="0" y="450">UNREGISTERED</text><text fill="#eeeeee" stroke="none" font-family="Arial" font-size="24px" font-style="normal" font-weight="normal" text-decoration="none" x="0" y="480">UNREGISTERED</text><text fill="#eeeeee" stroke="none" font-family="Arial" font-size="24px" font-style="normal" font-weight="normal" text-decoration="none" x="0" y="510">UNREGISTERED</text><text fill="#eeeeee" stroke="none" font-family="Arial" font-size="24px" font-style="normal" font-weight="normal" text-decoration="none" x="0" y="540">UNREGISTERED</text><text fill="#eeeeee" stroke="none" font-family="Arial" font-size="24px" font-style="normal" font-weight="normal" text-decoration="none" x="0" y="570">UNREGISTERED</text><text fill="#eeeeee" stroke="none" font-family="Arial" font-size="24px" font-style="normal" font-weight="normal" text-decoration="none" x="0" y="600">UNREGISTERED</text><text fill="#eeeeee" stroke="none" font-family="Arial" font-size="24px" font-style="normal" font-weight="normal" text-decoration="none" x="0" y="630">UNREGISTERED</text><text fill="#eeeeee" stroke="none" font-family="Arial" font-size="24px" font-style="normal" font-weight="normal" text-decoration="none" x="200" y="0">UNREGISTERED</text><text fill="#eeeeee" stroke="none" font-family="Arial" font-size="24px" font-style="normal" font-weight="normal" text-decoration="none" x="200" y="30">UNREGISTERED</text><text fill="#eeeeee" stroke="none" font-family="Arial" font-size="24px" font-style="normal" font-weight="normal" text-decoration="none" x="200" y="60">UNREGISTERED</text><text fill="#eeeeee" stroke="none" font-family="Arial" font-size="24px" font-style="normal" font-weight="normal" text-decoration="none" x="200" y="90">UNREGISTERED</text><text fill="#eeeeee" stroke="none" font-family="Arial" font-size="24px" font-style="normal" font-weight="normal" text-decoration="none" x="200" y="120">UNREGISTERED</text><text fill="#eeeeee" stroke="none" font-family="Arial" font-size="24px" font-style="normal" font-weight="normal" text-decoration="none" x="200" y="150">UNREGISTERED</text><text fill="#eeeeee" stroke="none" font-family="Arial" font-size="24px" font-style="normal" font-weight="normal" text-decoration="none" x="200" y="180">UNREGISTERED</text><text fill="#eeeeee" stroke="none" font-family="Arial" font-size="24px" font-style="normal" font-weight="normal" text-decoration="none" x="200" y="210">UNREGISTERED</text><text fill="#eeeeee" stroke="none" font-family="Arial" font-size="24px" font-style="normal" font-weight="normal" text-decoration="none" x="200" y="240">UNREGISTERED</text><text fill="#eeeeee" stroke="none" font-family="Arial" font-size="24px" font-style="normal" font-weight="normal" text-decoration="none" x="200" y="270">UNREGISTERED</text><text fill="#eeeeee" stroke="none" font-family="Arial" font-size="24px" font-style="normal" font-weight="normal" text-decoration="none" x="200" y="300">UNREGISTERED</text><text fill="#eeeeee" stroke="none" font-family="Arial" font-size="24px" font-style="normal" font-weight="normal" text-decoration="none" x="200" y="330">UNREGISTERED</text><text fill="#eeeeee" stroke="none" font-family="Arial" font-size="24px" font-style="normal" font-weight="normal" text-decoration="none" x="200" y="360">UNREGISTERED</text><text fill="#eeeeee" stroke="none" font-family="Arial" font-size="24px" font-style="normal" font-weight="normal" text-decoration="none" x="200" y="390">UNREGISTERED</text><text fill="#eeeeee" stroke="none" font-family="Arial" font-size="24px" font-style="normal" font-weight="normal" text-decoration="none" x="200" y="420">UNREGISTERED</text><text fill="#eeeeee" stroke="none" font-family="Arial" font-size="24px" font-style="normal" font-weight="normal" text-decoration="none" x="200" y="450">UNREGISTERED</text><text fill="#eeeeee" stroke="none" font-family="Arial" font-size="24px" font-style="normal" font-weight="normal" text-decoration="none" x="200" y="480">UNREGISTERED</text><text fill="#eeeeee" stroke="none" font-family="Arial" font-size="24px" font-style="normal" font-weight="normal" text-decoration="none" x="200" y="510">UNREGISTERED</text><text fill="#eeeeee" stroke="none" font-family="Arial" font-size="24px" font-style="normal" font-weight="normal" text-decoration="none" x="200" y="540">UNREGISTERED</text><text fill="#eeeeee" stroke="none" font-family="Arial" font-size="24px" font-style="normal" font-weight="normal" text-decoration="none" x="200" y="570">UNREGISTERED</text><text fill="#eeeeee" stroke="none" font-family="Arial" font-size="24px" font-style="normal" font-weight="normal" text-decoration="none" x="200" y="600">UNREGISTERED</text><text fill="#eeeeee" stroke="none" font-family="Arial" font-size="24px" font-style="normal" font-weight="normal" text-decoration="none" x="200" y="630">UNREGISTERED</text><text fill="#eeeeee" stroke="none" font-family="Arial" font-size="24px" font-style="normal" font-weight="normal" text-decoration="none" x="400" y="0">UNREGISTERED</text><text fill="#eeeeee" stroke="none" font-family="Arial" font-size="24px" font-style="normal" font-weight="normal" text-decoration="none" x="400" y="30">UNREGISTERED</text><text fill="#eeeeee" stroke="none" font-family="Arial" font-size="24px" font-style="normal" font-weight="normal" text-decoration="none" x="400" y="60">UNREGISTERED</text><text fill="#eeeeee" stroke="none" font-family="Arial" font-size="24px" font-style="normal" font-weight="normal" text-decoration="none" x="400" y="90">UNREGISTERED</text><text fill="#eeeeee" stroke="none" font-family="Arial" font-size="24px" font-style="normal" font-weight="normal" text-decoration="none" x="400" y="120">UNREGISTERED</text><text fill="#eeeeee" stroke="none" font-family="Arial" font-size="24px" font-style="normal" font-weight="normal" text-decoration="none" x="400" y="150">UNREGISTERED</text><text fill="#eeeeee" stroke="none" font-family="Arial" font-size="24px" font-style="normal" font-weight="normal" text-decoration="none" x="400" y="180">UNREGISTERED</text><text fill="#eeeeee" stroke="none" font-family="Arial" font-size="24px" font-style="normal" font-weight="normal" text-decoration="none" x="400" y="210">UNREGISTERED</text><text fill="#eeeeee" stroke="none" font-family="Arial" font-size="24px" font-style="normal" font-weight="normal" text-decoration="none" x="400" y="240">UNREGISTERED</text><text fill="#eeeeee" stroke="none" font-family="Arial" font-size="24px" font-style="normal" font-weight="normal" text-decoration="none" x="400" y="270">UNREGISTERED</text><text fill="#eeeeee" stroke="none" font-family="Arial" font-size="24px" font-style="normal" font-weight="normal" text-decoration="none" x="400" y="300">UNREGISTERED</text><text fill="#eeeeee" stroke="none" font-family="Arial" font-size="24px" font-style="normal" font-weight="normal" text-decoration="none" x="400" y="330">UNREGISTERED</text><text fill="#eeeeee" stroke="none" font-family="Arial" font-size="24px" font-style="normal" font-weight="normal" text-decoration="none" x="400" y="360">UNREGISTERED</text><text fill="#eeeeee" stroke="none" font-family="Arial" font-size="24px" font-style="normal" font-weight="normal" text-decoration="none" x="400" y="390">UNREGISTERED</text><text fill="#eeeeee" stroke="none" font-family="Arial" font-size="24px" font-style="normal" font-weight="normal" text-decoration="none" x="400" y="420">UNREGISTERED</text><text fill="#eeeeee" stroke="none" font-family="Arial" font-size="24px" font-style="normal" font-weight="normal" text-decoration="none" x="400" y="450">UNREGISTERED</text><text fill="#eeeeee" stroke="none" font-family="Arial" font-size="24px" font-style="normal" font-weight="normal" text-decoration="none" x="400" y="480">UNREGISTERED</text><text fill="#eeeeee" stroke="none" font-family="Arial" font-size="24px" font-style="normal" font-weight="normal" text-decoration="none" x="400" y="510">UNREGISTERED</text><text fill="#eeeeee" stroke="none" font-family="Arial" font-size="24px" font-style="normal" font-weight="normal" text-decoration="none" x="400" y="540">UNREGISTERED</text><text fill="#eeeeee" stroke="none" font-family="Arial" font-size="24px" font-style="normal" font-weight="normal" text-decoration="none" x="400" y="570">UNREGISTERED</text><text fill="#eeeeee" stroke="none" font-family="Arial" font-size="24px" font-style="normal" font-weight="normal" text-decoration="none" x="400" y="600">UNREGISTERED</text><text fill="#eeeeee" stroke="none" font-family="Arial" font-size="24px" font-style="normal" font-weight="normal" text-decoration="none" x="400" y="630">UNREGISTERED</text><text fill="#eeeeee" stroke="none" font-family="Arial" font-size="24px" font-style="normal" font-weight="normal" text-decoration="none" x="600" y="0">UNREGISTERED</text><text fill="#eeeeee" stroke="none" font-family="Arial" font-size="24px" font-style="normal" font-weight="normal" text-decoration="none" x="600" y="30">UNREGISTERED</text><text fill="#eeeeee" stroke="none" font-family="Arial" font-size="24px" font-style="normal" font-weight="normal" text-decoration="none" x="600" y="60">UNREGISTERED</text><text fill="#eeeeee" stroke="none" font-family="Arial" font-size="24px" font-style="normal" font-weight="normal" text-decoration="none" x="600" y="90">UNREGISTERED</text><text fill="#eeeeee" stroke="none" font-family="Arial" font-size="24px" font-style="normal" font-weight="normal" text-decoration="none" x="600" y="120">UNREGISTERED</text><text fill="#eeeeee" stroke="none" font-family="Arial" font-size="24px" font-style="normal" font-weight="normal" text-decoration="none" x="600" y="150">UNREGISTERED</text><text fill="#eeeeee" stroke="none" font-family="Arial" font-size="24px" font-style="normal" font-weight="normal" text-decoration="none" x="600" y="180">UNREGISTERED</text><text fill="#eeeeee" stroke="none" font-family="Arial" font-size="24px" font-style="normal" font-weight="normal" text-decoration="none" x="600" y="210">UNREGISTERED</text><text fill="#eeeeee" stroke="none" font-family="Arial" font-size="24px" font-style="normal" font-weight="normal" text-decoration="none" x="600" y="240">UNREGISTERED</text><text fill="#eeeeee" stroke="none" font-family="Arial" font-size="24px" font-style="normal" font-weight="normal" text-decoration="none" x="600" y="270">UNREGISTERED</text><text fill="#eeeeee" stroke="none" font-family="Arial" font-size="24px" font-style="normal" font-weight="normal" text-decoration="none" x="600" y="300">UNREGISTERED</text><text fill="#eeeeee" stroke="none" font-family="Arial" font-size="24px" font-style="normal" font-weight="normal" text-decoration="none" x="600" y="330">UNREGISTERED</text><text fill="#eeeeee" stroke="none" font-family="Arial" font-size="24px" font-style="normal" font-weight="normal" text-decoration="none" x="600" y="360">UNREGISTERED</text><text fill="#eeeeee" stroke="none" font-family="Arial" font-size="24px" font-style="normal" font-weight="normal" text-decoration="none" x="600" y="390">UNREGISTERED</text><text fill="#eeeeee" stroke="none" font-family="Arial" font-size="24px" font-style="normal" font-weight="normal" text-decoration="none" x="600" y="420">UNREGISTERED</text><text fill="#eeeeee" stroke="none" font-family="Arial" font-size="24px" font-style="normal" font-weight="normal" text-decoration="none" x="600" y="450">UNREGISTERED</text><text fill="#eeeeee" stroke="none" font-family="Arial" font-size="24px" font-style="normal" font-weight="normal" text-decoration="none" x="600" y="480">UNREGISTERED</text><text fill="#eeeeee" stroke="none" font-family="Arial" font-size="24px" font-style="normal" font-weight="normal" text-decoration="none" x="600" y="510">UNREGISTERED</text><text fill="#eeeeee" stroke="none" font-family="Arial" font-size="24px" font-style="normal" font-weight="normal" text-decoration="none" x="600" y="540">UNREGISTERED</text><text fill="#eeeeee" stroke="none" font-family="Arial" font-size="24px" font-style="normal" font-weight="normal" text-decoration="none" x="600" y="570">UNREGISTERED</text><text fill="#eeeeee" stroke="none" font-family="Arial" font-size="24px" font-style="normal" font-weight="normal" text-decoration="none" x="600" y="600">UNREGISTERED</text><text fill="#eeeeee" stroke="none" font-family="Arial" font-size="24px" font-style="normal" font-weight="normal" text-decoration="none" x="600" y="630">UNREGISTERED</text><g transform="translate(-318,-238) scale(1,1)"><rect fill="#C0C0C0" stroke="none" x="359" y="535" width="50.919921875" height="44" opacity="0.2"/></g><g transform="translate(-318,-238) scale(1,1)"><rect fill="#ffffff" stroke="none" x="352" y="528" width="50.919921875" height="44"/></g><g transform="translate(-318,-238) scale(1,1)"><path fill="none" stroke="#000000" d="M 352 528 L 402.919921875 528 L 402.919921875 572 L 352 572 L 352 528 Z Z" stroke-miterlimit="10"/></g><g transform="translate(-318,-238) scale(1,1)"><path fill="none" stroke="#000000" d="M 352 553 L 402.919921875 553" stroke-miterlimit="10"/></g><g transform="translate(-318,-238) scale(1,1)"><path fill="none" stroke="#000000" d="M 352 563 L 402.919921875 563" stroke-miterlimit="10"/></g><g transform="translate(-318,-238) scale(1,1)"><g><path fill="none" stroke="none"/><text fill="#000000" stroke="none" font-family="Arial" font-size="13px" font-style="normal" font-weight="bold" text-decoration="none" x="363.736328125" y="547.5">User</text></g></g><g transform="translate(-318,-238) scale(1,1)"><rect fill="#C0C0C0" stroke="none" x="855" y="535" width="53.07177734375" height="44" opacity="0.2"/></g><g transform="translate(-318,-238) scale(1,1)"><rect fill="#ffffff" stroke="none" x="848" y="528" width="53.07177734375" height="44"/></g><g transform="translate(-318,-238) scale(1,1)"><path fill="none" stroke="#000000" d="M 848 528 L 901.07177734375 528 L 901.07177734375 572 L 848 572 L 848 528 Z Z" stroke-miterlimit="10"/></g><g transform="translate(-318,-238) scale(1,1)"><path fill="none" stroke="#000000" d="M 848 553 L 901.07177734375 553" stroke-miterlimit="10"/></g><g transform="translate(-318,-238) scale(1,1)"><path fill="none" stroke="#000000" d="M 848 563 L 901.07177734375 563" stroke-miterlimit="10"/></g><g transform="translate(-318,-238) scale(1,1)"><g><path fill="none" stroke="none"/><text fill="#000000" stroke="none" font-family="Arial" font-size="13px" font-style="normal" font-weight="bold" text-decoration="none" x="854.305908203125" y="547.5">Project</text></g></g><g transform="translate(-318,-238) scale(1,1)"><rect fill="#C0C0C0" stroke="none" x="615" y="839" width="50.919921875" height="44" opacity="0.2"/></g><g transform="translate(-318,-238) scale(1,1)"><rect fill="#ffffff" stroke="none" x="608" y="832" width="50.919921875" height="44"/></g><g transform="translate(-318,-238) scale(1,1)"><path fill="none" stroke="#000000" d="M 608 832 L 658.919921875 832 L 658.919921875 876 L 608 876 L 608 832 Z Z" stroke-miterlimit="10"/></g><g transform="translate(-318,-238) scale(1,1)"><path fill="none" stroke="#000000" d="M 608 857 L 658.919921875 857" stroke-miterlimit="10"/></g><g transform="translate(-318,-238) scale(1,1)"><path fill="none" stroke="#000000" d="M 608 867 L 658.919921875 867" stroke-miterlimit="10"/></g><g transform="translate(-318,-238) scale(1,1)"><g><path fill="none" stroke="none"/><text fill="#000000" stroke="none" font-family="Arial" font-size="13px" font-style="normal" font-weight="bold" text-decoration="none" x="620.094970703125" y="851.5">Task</text></g></g><g transform="translate(-318,-238) scale(1,1)"><rect fill="#C0C0C0" stroke="none" x="615" y="335" width="50.919921875" height="44" opacity="0.2"/></g><g transform="translate(-318,-238) scale(1,1)"><rect fill="#ffffff" stroke="none" x="608" y="328" width="50.919921875" height="44"/></g><g transform="translate(-318,-238) scale(1,1)"><path fill="none" stroke="#000000" d="M 608 328 L 658.919921875 328 L 658.919921875 372 L 608 372 L 608 328 Z Z" stroke-miterlimit="10"/></g><g transform="translate(-318,-238) scale(1,1)"><path fill="none" stroke="#000000" d="M 608 353 L 658.919921875 353" stroke-miterlimit="10"/></g><g transform="translate(-318,-238) scale(1,1)"><path fill="none" stroke="#000000" d="M 608 363 L 658.919921875 363" stroke-miterlimit="10"/></g><g transform="translate(-318,-238) scale(1,1)"><g><path fill="none" stroke="none"/><text fill="#000000" stroke="none" font-family="Arial" font-size="13px" font-style="normal" font-weight="bold" text-decoration="none" x="617.200439453125" y="347.5">Apply</text></g></g><g transform="translate(-318,-238) scale(1,1)"><rect fill="#C0C0C0" stroke="none" x="615" y="255" width="50.919921875" height="44" opacity="0.2"/></g><g transform="translate(-318,-238) scale(1,1)"><rect fill="#ffffff" stroke="none" x="608" y="248" width="50.919921875" height="44"/></g><g transform="translate(-318,-238) scale(1,1)"><path fill="none" stroke="#000000" d="M 608 248 L 658.919921875 248 L 658.919921875 292 L 608 292 L 608 248 Z Z" stroke-miterlimit="10"/></g><g transform="translate(-318,-238) scale(1,1)"><path fill="none" stroke="#000000" d="M 608 273 L 658.919921875 273" stroke-miterlimit="10"/></g><g transform="translate(-318,-238) scale(1,1)"><path fill="none" stroke="#000000" d="M 608 283 L 658.919921875 283" stroke-miterlimit="10"/></g><g transform="translate(-318,-238) scale(1,1)"><g><path fill="none" stroke="none"/><text fill="#000000" stroke="none" font-family="Arial" font-size="13px" font-style="normal" font-weight="bold" text-decoration="none" x="617.924072265625" y="267.5">Invite</text></g></g><g transform="translate(-318,-238) scale(1,1)"><rect fill="#C0C0C0" stroke="none" x="503" y="687" width="57.38818359375" height="44" opacity="0.2"/></g><g transform="translate(-318,-238) scale(1,1)"><rect fill="#ffffff" stroke="none" x="496" y="680" width="57.38818359375" height="44"/></g><g transform="translate(-318,-238) scale(1,1)"><path fill="none" stroke="#000000" d="M 496 680 L 553.38818359375 680 L 553.38818359375 724 L 496 724 L 496 680 Z Z" stroke-miterlimit="10"/></g><g transform="translate(-318,-238) scale(1,1)"><path fill="none" stroke="#000000" d="M 496 705 L 553.38818359375 705" stroke-miterlimit="10"/></g><g transform="translate(-318,-238) scale(1,1)"><path fill="none" stroke="#000000" d="M 496 715 L 553.38818359375 715" stroke-miterlimit="10"/></g><g transform="translate(-318,-238) scale(1,1)"><g><path fill="none" stroke="none"/><text fill="#000000" stroke="none" font-family="Arial" font-size="13px" font-style="normal" font-weight="bold" text-decoration="none" x="502.305908203125" y="699.5">Commit</text></g></g><g transform="translate(-318,-238) scale(1,1)"><rect fill="#C0C0C0" stroke="none" x="727" y="687" width="63.919921875" height="44" opacity="0.2"/></g><g transform="translate(-318,-238) scale(1,1)"><rect fill="#ffffff" stroke="none" x="720" y="680" width="63.919921875" height="44"/></g><g transform="translate(-318,-238) scale(1,1)"><path fill="none" stroke="#000000" d="M 720 680 L 783.919921875 680 L 783.919921875 724 L 720 724 L 720 680 Z Z" stroke-miterlimit="10"/></g><g transform="translate(-318,-238) scale(1,1)"><path fill="none" stroke="#000000" d="M 720 705 L 783.919921875 705" stroke-miterlimit="10"/></g><g transform="translate(-318,-238) scale(1,1)"><path fill="none" stroke="#000000" d="M 720 715 L 783.919921875 715" stroke-miterlimit="10"/></g><g transform="translate(-318,-238) scale(1,1)"><g><path fill="none" stroke="none"/><text fill="#000000" stroke="none" font-family="Arial" font-size="13px" font-style="normal" font-weight="bold" text-decoration="none" x="725.58544921875" y="699.5">Message</text></g></g><g transform="translate(-318,-238) scale(1,1)"><rect fill="#C0C0C0" stroke="none" x="447" y="391" width="76.90087890625" height="44" opacity="0.2"/></g><g transform="translate(-318,-238) scale(1,1)"><rect fill="#ffffff" stroke="none" x="440" y="384" width="76.90087890625" height="44"/></g><g transform="translate(-318,-238) scale(1,1)"><path fill="none" stroke="#000000" d="M 440 384 L 516.90087890625 384 L 516.90087890625 428 L 440 428 L 440 384 Z Z" stroke-miterlimit="10"/></g><g transform="translate(-318,-238) scale(1,1)"><path fill="none" stroke="#000000" d="M 440 409 L 516.90087890625 409" stroke-miterlimit="10"/></g><g transform="translate(-318,-238) scale(1,1)"><path fill="none" stroke="#000000" d="M 440 419 L 516.90087890625 419" stroke-miterlimit="10"/></g><g transform="translate(-318,-238) scale(1,1)"><g><path fill="none" stroke="none"/><text fill="#000000" stroke="none" font-family="Arial" font-size="13px" font-style="normal" font-weight="bold" text-decoration="none" x="447.3818359375" y="403.5">Repository</text></g></g><g transform="translate(-318,-238) scale(1,1)"><rect fill="#C0C0C0" stroke="none" x="591" y="535" width="108.70263671875" height="44" opacity="0.2"/></g><g transform="translate(-318,-238) scale(1,1)"><rect fill="#ffffff" stroke="none" x="584" y="528" width="108.70263671875" height="44"/></g><g transform="translate(-318,-238) scale(1,1)"><path fill="none" stroke="#000000" d="M 584 528 L 692.70263671875 528 L 692.70263671875 572 L 584 572 L 584 528 Z Z" stroke-miterlimit="10"/></g><g transform="translate(-318,-238) scale(1,1)"><path fill="none" stroke="#000000" d="M 584 553 L 692.70263671875 553" stroke-miterlimit="10"/></g><g transform="translate(-318,-238) scale(1,1)"><path fill="none" stroke="#000000" d="M 584 563 L 692.70263671875 563" stroke-miterlimit="10"/></g><g transform="translate(-318,-238) scale(1,1)"><g><path fill="none" stroke="none"/><text fill="#000000" stroke="none" font-family="Arial" font-size="13px" font-style="normal" font-weight="bold" text-decoration="none" x="592.4736328125" y="547.5">shipUserProject</text></g></g><g transform="translate(-318,-238) scale(1,1)"><rect fill="#C0C0C0" stroke="none" x="335" y="839" width="93.296875" height="44" opacity="0.2"/></g><g transform="translate(-318,-238) scale(1,1)"><rect fill="#ffffff" stroke="none" x="328" y="832" width="93.296875" height="44"/></g><g transform="translate(-318,-238) scale(1,1)"><path fill="none" stroke="#000000" d="M 328 832 L 421.296875 832 L 421.296875 876 L 328 876 L 328 832 Z Z" stroke-miterlimit="10"/></g><g transform="translate(-318,-238) scale(1,1)"><path fill="none" stroke="#000000" d="M 328 857 L 421.296875 857" stroke-miterlimit="10"/></g><g transform="translate(-318,-238) scale(1,1)"><path fill="none" stroke="#000000" d="M 328 867 L 421.296875 867" stroke-miterlimit="10"/></g><g transform="translate(-318,-238) scale(1,1)"><g><path fill="none" stroke="none"/><text fill="#000000" stroke="none" font-family="Arial" font-size="13px" font-style="normal" font-weight="bold" text-decoration="none" x="335.6357421875" y="851.5">shipUserTask</text></g></g><g transform="translate(-318,-238) scale(1,1)"><rect fill="#C0C0C0" stroke="none" x="831" y="831" width="108.46142578125" height="44" opacity="0.2"/></g><g transform="translate(-318,-238) scale(1,1)"><rect fill="#ffffff" stroke="none" x="824" y="824" width="108.46142578125" height="44"/></g><g transform="translate(-318,-238) scale(1,1)"><path fill="none" stroke="#000000" d="M 824 824 L 932.46142578125 824 L 932.46142578125 868 L 824 868 L 824 824 Z Z" stroke-miterlimit="10"/></g><g transform="translate(-318,-238) scale(1,1)"><path fill="none" stroke="#000000" d="M 824 849 L 932.46142578125 849" stroke-miterlimit="10"/></g><g transform="translate(-318,-238) scale(1,1)"><path fill="none" stroke="#000000" d="M 824 859 L 932.46142578125 859" stroke-miterlimit="10"/></g><g transform="translate(-318,-238) scale(1,1)"><g><path fill="none" stroke="none"/><text fill="#000000" stroke="none" font-family="Arial" font-size="13px" font-style="normal" font-weight="bold" text-decoration="none" x="832.711669921875" y="843.5">shipProjectTask</text></g></g><g transform="translate(-318,-238) scale(1,1)"><rect fill="#C0C0C0" stroke="none" x="351" y="295" width="84.1181640625" height="44" opacity="0.2"/></g><g transform="translate(-318,-238) scale(1,1)"><rect fill="#ffffff" stroke="none" x="344" y="288" width="84.1181640625" height="44"/></g><g transform="translate(-318,-238) scale(1,1)"><path fill="none" stroke="#000000" d="M 344 288 L 428.1181640625 288 L 428.1181640625 332 L 344 332 L 344 288 Z Z" stroke-miterlimit="10"/></g><g transform="translate(-318,-238) scale(1,1)"><path fill="none" stroke="#000000" d="M 344 313 L 428.1181640625 313" stroke-miterlimit="10"/></g><g transform="translate(-318,-238) scale(1,1)"><path fill="none" stroke="#000000" d="M 344 323 L 428.1181640625 323" stroke-miterlimit="10"/></g><g transform="translate(-318,-238) scale(1,1)"><g><path fill="none" stroke="none"/><text fill="#000000" stroke="none" font-family="Arial" font-size="13px" font-style="normal" font-weight="bold" text-decoration="none" x="351.3818359375" y="307.5">ControlUser</text></g></g><g transform="translate(-318,-238) scale(1,1)"><rect fill="#C0C0C0" stroke="none" x="831" y="295" width="99.28271484375" height="44" opacity="0.2"/></g><g transform="translate(-318,-238) scale(1,1)"><rect fill="#ffffff" stroke="none" x="824" y="288" width="99.28271484375" height="44"/></g><g transform="translate(-318,-238) scale(1,1)"><path fill="none" stroke="#000000" d="M 824 288 L 923.28271484375 288 L 923.28271484375 332 L 824 332 L 824 288 Z Z" stroke-miterlimit="10"/></g><g transform="translate(-318,-238) scale(1,1)"><path fill="none" stroke="#000000" d="M 824 313 L 923.28271484375 313" stroke-miterlimit="10"/></g><g transform="translate(-318,-238) scale(1,1)"><path fill="none" stroke="#000000" d="M 824 323 L 923.28271484375 323" stroke-miterlimit="10"/></g><g transform="translate(-318,-238) scale(1,1)"><g><path fill="none" stroke="none"/><text fill="#000000" stroke="none" font-family="Arial" font-size="13px" font-style="normal" font-weight="bold" text-decoration="none" x="832.457763671875" y="307.5">ControlProject</text></g></g><g transform="translate(-318,-238) scale(1,1)"><rect fill="#C0C0C0" stroke="none" x="607" y="639" width="81.2109375" height="44" opacity="0.2"/></g><g transform="translate(-318,-238) scale(1,1)"><rect fill="#ffffff" stroke="none" x="600" y="632" width="81.2109375" height="44"/></g><g transform="translate(-318,-238) scale(1,1)"><path fill="none" stroke="#000000" d="M 600 632 L 681.2109375 632 L 681.2109375 676 L 600 676 L 600 632 Z Z" stroke-miterlimit="10"/></g><g transform="translate(-318,-238) scale(1,1)"><path fill="none" stroke="#000000" d="M 600 657 L 681.2109375 657" stroke-miterlimit="10"/></g><g transform="translate(-318,-238) scale(1,1)"><path fill="none" stroke="#000000" d="M 600 667 L 681.2109375 667" stroke-miterlimit="10"/></g><g transform="translate(-318,-238) scale(1,1)"><g><path fill="none" stroke="none"/><text fill="#000000" stroke="none" font-family="Arial" font-size="13px" font-style="normal" font-weight="bold" text-decoration="none" x="607.372314453125" y="651.5">ControlMsg</text></g></g><g transform="translate(-318,-238) scale(1,1)"><rect fill="#C0C0C0" stroke="none" x="607" y="455" width="77.60546875" height="44" opacity="0.2"/></g><g transform="translate(-318,-238) scale(1,1)"><rect fill="#ffffff" stroke="none" x="600" y="448" width="77.60546875" height="44"/></g><g transform="translate(-318,-238) scale(1,1)"><path fill="none" stroke="#000000" d="M 600 448 L 677.60546875 448 L 677.60546875 492 L 600 492 L 600 448 Z Z" stroke-miterlimit="10"/></g><g transform="translate(-318,-238) scale(1,1)"><path fill="none" stroke="#000000" d="M 600 473 L 677.60546875 473" stroke-miterlimit="10"/></g><g transform="translate(-318,-238) scale(1,1)"><path fill="none" stroke="#000000" d="M 600 483 L 677.60546875 483" stroke-miterlimit="10"/></g><g transform="translate(-318,-238) scale(1,1)"><g><path fill="none" stroke="none"/><text fill="#000000" stroke="none" font-family="Arial" font-size="13px" font-style="normal" font-weight="bold" text-decoration="none" x="607.37548828125" y="467.5">ControlFile</text></g></g><g transform="translate(-318,-238) scale(1,1)"><rect fill="#C0C0C0" stroke="none" x="599" y="767" width="83.876953125" height="44" opacity="0.2"/></g><g transform="translate(-318,-238) scale(1,1)"><rect fill="#ffffff" stroke="none" x="592" y="760" width="83.876953125" height="44"/></g><g transform="translate(-318,-238) scale(1,1)"><path fill="none" stroke="#000000" d="M 592 760 L 675.876953125 760 L 675.876953125 804 L 592 804 L 592 760 Z Z" stroke-miterlimit="10"/></g><g transform="translate(-318,-238) scale(1,1)"><path fill="none" stroke="#000000" d="M 592 785 L 675.876953125 785" stroke-miterlimit="10"/></g><g transform="translate(-318,-238) scale(1,1)"><path fill="none" stroke="#000000" d="M 592 795 L 675.876953125 795" stroke-miterlimit="10"/></g><g transform="translate(-318,-238) scale(1,1)"><g><path fill="none" stroke="none"/><text fill="#000000" stroke="none" font-family="Arial" font-size="13px" font-style="normal" font-weight="bold" text-decoration="none" x="599.619873046875" y="779.5">ControlTask</text></g></g><g transform="translate(-318,-238) scale(1,1)"><path fill="none" stroke="#000000" d="M 403 549 L 584 549" stroke-miterlimit="10"/></g><g transform="translate(-318,-238) scale(1,1)"><path fill="none" stroke="#000000" d="M 693 549 L 848 549" stroke-miterlimit="10"/></g><g transform="translate(-318,-238) scale(1,1)"><path fill="none" stroke="#000000" d="M 376 332 L 376 528" stroke-miterlimit="10"/></g><g transform="translate(-318,-238) scale(1,1)"><path fill="none" stroke="#000000" d="M 873 332 L 873 528" stroke-miterlimit="10"/></g><g transform="translate(-318,-238) scale(1,1)"><path fill="none" stroke="#000000" d="M 376 288 L 376 264 L 608 264" stroke-miterlimit="10"/></g><g transform="translate(-318,-238) scale(1,1)"><path fill="none" stroke="#000000" d="M 386 332 L 386 352 L 608 352" stroke-miterlimit="10"/></g><g transform="translate(-318,-238) scale(1,1)"><path fill="none" stroke="#000000" d="M 659 264 L 872 264 L 872 288" stroke-miterlimit="10"/></g><g transform="translate(-318,-238) scale(1,1)"><path fill="none" stroke="#000000" d="M 659 352 L 873 352 L 873 332" stroke-miterlimit="10"/></g><g transform="translate(-318,-238) scale(1,1)"><path fill="none" stroke="#000000" d="M 377 528 L 377 464 L 600 464" stroke-miterlimit="10"/></g><g transform="translate(-318,-238) scale(1,1)"><path fill="none" stroke="#000000" d="M 678 464 L 872 464 L 872 528" stroke-miterlimit="10"/></g><g transform="translate(-318,-238) scale(1,1)"><path fill="none" stroke="#000000" d="M 377 572 L 377 654 L 600 654" stroke-miterlimit="10"/></g><g transform="translate(-318,-238) scale(1,1)"><path fill="none" stroke="#000000" d="M 681 654 L 874 654 L 874 572" stroke-miterlimit="10"/></g><g transform="translate(-318,-238) scale(1,1)"><path fill="none" stroke="#000000" d="M 377 572 L 377 832" stroke-miterlimit="10"/></g><g transform="translate(-318,-238) scale(1,1)"><path fill="none" stroke="#000000" d="M 421 854 L 608 854" stroke-miterlimit="10"/></g><g transform="translate(-318,-238) scale(1,1)"><path fill="none" stroke="#000000" d="M 875 572 L 875 824" stroke-miterlimit="10"/></g><g transform="translate(-318,-238) scale(1,1)"><path fill="none" stroke="#000000" d="M 659 853 L 824 853" stroke-miterlimit="10"/></g><g transform="translate(-318,-238) scale(1,1)"><path fill="none" stroke="#000000" d="M 520 724 L 520 768 L 592 768" stroke-miterlimit="10"/></g><g transform="translate(-318,-238) scale(1,1)"><path fill="none" stroke="#000000" d="M 632 804 L 632 832" stroke-miterlimit="10"/></g><g transform="translate(-318,-238) scale(1,1)"><path fill="none" stroke="#000000" d="M 377 572 L 377 784 L 592 784" stroke-miterlimit="10"/></g><g transform="translate(-318,-238) scale(1,1)"><path fill="none" stroke="#000000" d="M 872 572 L 872 782 L 676 782" stroke-miterlimit="10"/></g><g transform="translate(-318,-238) scale(1,1)"><path fill="none" stroke="#000000" d="M 720 702 L 646 702 L 646 676" stroke-miterlimit="10"/></g><g transform="translate(-318,-238) scale(1,1)"><path fill="none" stroke="#000000" d="M 517 408 L 638 408 L 638 448" stroke-miterlimit="10"/></g></g></svg>